# xmcd
#
# Track frame offsets:
#	150
#	33294
#	64509
#	94579
#	131545
#	157009
#	191681
#	221654
#	259165
#	288706
#	325225
#
# Disc length: 4712 seconds
#
# Revision: 2
# Processed by: cddbd v1.5.2PL0 Copyright (c) Steve Scherf et al.
# Submitted via: audiograbber 1.83.01
#
DISCID=a212660b
DTITLE=Gary D. - D.Trance 32 CD 2
DYEAR=2005
DGENRE=Trance
TTITLE0=Gary D. - Reborn
TTITLE1=Sonic Child - Wild Pleasure
TTITLE2=Wallstedt and Dorfler  - The Art of Destruction
TTITLE3=4 Strings - Sunrise
TTITLE4=Magellan - U.S. Test
TTITLE5=Megara vs. DJ Lee - The Megara 2005
TTITLE6=Denga and Manus - Cenwen
TTITLE7=Ralph Novell - Hurricane
TTITLE8=Gollum and Yanny - Storyteller
TTITLE9=Menno De Jong - Tundra
TTITLE10=Mr. Sam - Lyteo
EXTD=
EXTT0=
EXTT1=
EXTT2=
EXTT3=
EXTT4=
EXTT5=
EXTT6=
EXTT7=
EXTT8=
EXTT9=
EXTT10=
PLAYORDER=
